<mxfile host="app.diagrams.net" modified="2023-06-03T06:30:15.606Z" agent="Mozilla/5.0 (Windows NT 10.0; Win64; x64) AppleWebKit/537.36 (KHTML, like Gecko) Chrome/114.0.0.0 Safari/537.36" etag="VzMM1auHHw_Ih8shbN5T" version="21.3.7" type="device">
  <diagram name="Trang-1" id="qlhlSpQyK1MtqHGKubsB">
    <mxGraphModel dx="1305" dy="779" grid="1" gridSize="10" guides="1" tooltips="1" connect="1" arrows="1" fold="1" page="1" pageScale="1" pageWidth="827" pageHeight="1169" math="0" shadow="0">
      <root>
        <mxCell id="0" />
        <mxCell id="1" parent="0" />
        <mxCell id="mawjHxVvoFHF4PkXvqdo-3" value="" style="rounded=0;whiteSpace=wrap;html=1;" parent="1" vertex="1">
          <mxGeometry x="40" y="60" width="160" height="340" as="geometry" />
        </mxCell>
        <mxCell id="mawjHxVvoFHF4PkXvqdo-7" value="&lt;h1&gt;Home&lt;/h1&gt;&lt;p&gt;- Hiển thị danh sách theo ngày (ngày giảm dần) (design item (1))&lt;/p&gt;&lt;p&gt;- 1 button add item&lt;/p&gt;&lt;p&gt;- Action bar gồm Menu hiển thị các chức năng khác (design (1))&lt;/p&gt;" style="text;html=1;strokeColor=none;fillColor=none;spacing=5;spacingTop=-20;whiteSpace=wrap;overflow=hidden;rounded=0;" parent="1" vertex="1">
          <mxGeometry x="40" y="70" width="150" height="200" as="geometry" />
        </mxCell>
        <mxCell id="mawjHxVvoFHF4PkXvqdo-10" value="" style="rounded=0;whiteSpace=wrap;html=1;" parent="1" vertex="1">
          <mxGeometry x="270" y="60" width="160" height="340" as="geometry" />
        </mxCell>
        <mxCell id="mawjHxVvoFHF4PkXvqdo-11" value="&lt;h1&gt;Add item&lt;/h1&gt;&lt;p&gt;- 1 button back lại home&lt;/p&gt;&lt;p&gt;- Chọn ngày, mặc định là ngày hôm nay&lt;/p&gt;&lt;p&gt;- Hiển thị mặc định 1 item add (design item (2))&lt;/p&gt;&lt;p&gt;- 1 button thực hiện add item vào db thực hiện xong back về home.&lt;/p&gt;&lt;p&gt;-1 view hiển thị tổng tiền&lt;/p&gt;" style="text;html=1;strokeColor=none;fillColor=none;spacing=5;spacingTop=-20;whiteSpace=wrap;overflow=hidden;rounded=0;" parent="1" vertex="1">
          <mxGeometry x="270" y="70" width="140" height="260" as="geometry" />
        </mxCell>
        <mxCell id="mawjHxVvoFHF4PkXvqdo-12" value="" style="rounded=0;whiteSpace=wrap;html=1;" parent="1" vertex="1">
          <mxGeometry x="500" y="60" width="160" height="340" as="geometry" />
        </mxCell>
        <mxCell id="mawjHxVvoFHF4PkXvqdo-13" value="&lt;h1 style=&quot;border-color: var(--border-color);&quot;&gt;Edit item&lt;/h1&gt;&lt;h1&gt;&lt;p style=&quot;border-color: var(--border-color); font-size: 12px; font-weight: 400;&quot;&gt;- 1 button back lại home&lt;/p&gt;&lt;p style=&quot;border-color: var(--border-color); font-size: 12px; font-weight: 400;&quot;&gt;- Chọn ngày, mặc định là ngày được edit&lt;/p&gt;&lt;p style=&quot;border-color: var(--border-color); font-size: 12px; font-weight: 400;&quot;&gt;- Hiển thị các item edit (design item (3))&lt;/p&gt;&lt;p style=&quot;border-color: var(--border-color); font-size: 12px; font-weight: 400;&quot;&gt;- 1 button add item mới, thực hiện mở dialog add item (design 2)&lt;/p&gt;&lt;p style=&quot;border-color: var(--border-color); font-size: 12px; font-weight: 400;&quot;&gt;- 1 button thực hiện save item edited vào db thực hiện xong back về home.&lt;/p&gt;&lt;p style=&quot;border-color: var(--border-color); font-size: 12px; font-weight: 400;&quot;&gt;- 1 view hiển thị tổng tiền&lt;/p&gt;&lt;/h1&gt;" style="text;html=1;strokeColor=none;fillColor=none;spacing=5;spacingTop=-20;whiteSpace=wrap;overflow=hidden;rounded=0;" parent="1" vertex="1">
          <mxGeometry x="500" y="70" width="150" height="300" as="geometry" />
        </mxCell>
        <mxCell id="mawjHxVvoFHF4PkXvqdo-14" value="&lt;font style=&quot;font-size: 17px;&quot;&gt;Design action bar home (item 1)&lt;/font&gt;" style="text;html=1;strokeColor=none;fillColor=none;align=center;verticalAlign=middle;whiteSpace=wrap;rounded=0;" parent="1" vertex="1">
          <mxGeometry x="20" y="450" width="210" height="30" as="geometry" />
        </mxCell>
        <mxCell id="mawjHxVvoFHF4PkXvqdo-15" value="" style="rounded=0;whiteSpace=wrap;html=1;" parent="1" vertex="1">
          <mxGeometry x="40" y="520" width="250" height="40" as="geometry" />
        </mxCell>
        <mxCell id="mawjHxVvoFHF4PkXvqdo-21" value="" style="edgeStyle=orthogonalEdgeStyle;rounded=0;orthogonalLoop=1;jettySize=auto;html=1;" parent="1" source="mawjHxVvoFHF4PkXvqdo-16" target="mawjHxVvoFHF4PkXvqdo-20" edge="1">
          <mxGeometry relative="1" as="geometry" />
        </mxCell>
        <mxCell id="mawjHxVvoFHF4PkXvqdo-16" value="Menu icon" style="whiteSpace=wrap;html=1;aspect=fixed;" parent="1" vertex="1">
          <mxGeometry x="250" y="520" width="40" height="40" as="geometry" />
        </mxCell>
        <mxCell id="mawjHxVvoFHF4PkXvqdo-19" value="Thống kê" style="rounded=0;whiteSpace=wrap;html=1;" parent="1" vertex="1">
          <mxGeometry x="170" y="560" width="120" height="30" as="geometry" />
        </mxCell>
        <mxCell id="mawjHxVvoFHF4PkXvqdo-20" value="Dọn dẹp" style="rounded=0;whiteSpace=wrap;html=1;" parent="1" vertex="1">
          <mxGeometry x="170" y="590" width="120" height="30" as="geometry" />
        </mxCell>
        <mxCell id="mawjHxVvoFHF4PkXvqdo-22" value="Ứng tiền theo ngày" style="rounded=0;whiteSpace=wrap;html=1;" parent="1" vertex="1">
          <mxGeometry x="170" y="620" width="120" height="30" as="geometry" />
        </mxCell>
        <mxCell id="mawjHxVvoFHF4PkXvqdo-23" value="&lt;font style=&quot;font-size: 17px;&quot;&gt;Design item Home (1)&lt;/font&gt;" style="text;html=1;strokeColor=none;fillColor=none;align=center;verticalAlign=middle;whiteSpace=wrap;rounded=0;" parent="1" vertex="1">
          <mxGeometry x="20" y="720" width="210" height="30" as="geometry" />
        </mxCell>
        <mxCell id="mawjHxVvoFHF4PkXvqdo-30" value="" style="rounded=0;whiteSpace=wrap;html=1;" parent="1" vertex="1">
          <mxGeometry x="40" y="800" width="360" height="210" as="geometry" />
        </mxCell>
        <mxCell id="mawjHxVvoFHF4PkXvqdo-31" value="Ngày (dd/MM/yyyy)" style="text;html=1;strokeColor=none;fillColor=none;align=center;verticalAlign=middle;whiteSpace=wrap;rounded=0;" parent="1" vertex="1">
          <mxGeometry x="40" y="800" width="120" height="30" as="geometry" />
        </mxCell>
        <mxCell id="mawjHxVvoFHF4PkXvqdo-33" value="Edit icon" style="whiteSpace=wrap;html=1;aspect=fixed;" parent="1" vertex="1">
          <mxGeometry x="370" y="800" width="30" height="30" as="geometry" />
        </mxCell>
        <mxCell id="mawjHxVvoFHF4PkXvqdo-37" value="Khoản tiền" style="text;html=1;strokeColor=none;fillColor=none;align=center;verticalAlign=middle;whiteSpace=wrap;rounded=0;" parent="1" vertex="1">
          <mxGeometry x="80" y="850" width="80" height="30" as="geometry" />
        </mxCell>
        <mxCell id="mawjHxVvoFHF4PkXvqdo-38" value="Số tiền" style="text;html=1;strokeColor=none;fillColor=none;align=center;verticalAlign=middle;whiteSpace=wrap;rounded=0;" parent="1" vertex="1">
          <mxGeometry x="320" y="850" width="80" height="30" as="geometry" />
        </mxCell>
        <mxCell id="mawjHxVvoFHF4PkXvqdo-39" value="Khoản tiền" style="text;html=1;strokeColor=none;fillColor=none;align=center;verticalAlign=middle;whiteSpace=wrap;rounded=0;" parent="1" vertex="1">
          <mxGeometry x="80" y="880" width="80" height="30" as="geometry" />
        </mxCell>
        <mxCell id="mawjHxVvoFHF4PkXvqdo-40" value="Số tiền" style="text;html=1;strokeColor=none;fillColor=none;align=center;verticalAlign=middle;whiteSpace=wrap;rounded=0;" parent="1" vertex="1">
          <mxGeometry x="320" y="880" width="80" height="30" as="geometry" />
        </mxCell>
        <mxCell id="mawjHxVvoFHF4PkXvqdo-41" value="Khoản tiền" style="text;html=1;strokeColor=none;fillColor=none;align=center;verticalAlign=middle;whiteSpace=wrap;rounded=0;" parent="1" vertex="1">
          <mxGeometry x="80" y="910" width="80" height="30" as="geometry" />
        </mxCell>
        <mxCell id="mawjHxVvoFHF4PkXvqdo-42" value="Số tiền" style="text;html=1;strokeColor=none;fillColor=none;align=center;verticalAlign=middle;whiteSpace=wrap;rounded=0;" parent="1" vertex="1">
          <mxGeometry x="320" y="910" width="80" height="30" as="geometry" />
        </mxCell>
        <mxCell id="mawjHxVvoFHF4PkXvqdo-43" value="" style="endArrow=none;html=1;rounded=0;entryX=1;entryY=0.75;entryDx=0;entryDy=0;exitX=0;exitY=0.75;exitDx=0;exitDy=0;" parent="1" source="mawjHxVvoFHF4PkXvqdo-30" target="mawjHxVvoFHF4PkXvqdo-30" edge="1">
          <mxGeometry width="50" height="50" relative="1" as="geometry">
            <mxPoint x="390" y="1070" as="sourcePoint" />
            <mxPoint x="440" y="1020" as="targetPoint" />
          </mxGeometry>
        </mxCell>
        <mxCell id="mawjHxVvoFHF4PkXvqdo-44" value="Số tiền" style="text;html=1;strokeColor=none;fillColor=none;align=center;verticalAlign=middle;whiteSpace=wrap;rounded=0;" parent="1" vertex="1">
          <mxGeometry x="320" y="970" width="80" height="30" as="geometry" />
        </mxCell>
        <mxCell id="mawjHxVvoFHF4PkXvqdo-45" value="Tổng tiền trong ngày" style="text;html=1;strokeColor=none;fillColor=none;align=center;verticalAlign=middle;whiteSpace=wrap;rounded=0;" parent="1" vertex="1">
          <mxGeometry x="50" y="970" width="110" height="30" as="geometry" />
        </mxCell>
        <mxCell id="mawjHxVvoFHF4PkXvqdo-46" value="Click ra màn hình edit item" style="shape=callout;whiteSpace=wrap;html=1;perimeter=calloutPerimeter;" parent="1" vertex="1">
          <mxGeometry x="327.5" y="730" width="115" height="70" as="geometry" />
        </mxCell>
        <mxCell id="mawjHxVvoFHF4PkXvqdo-47" value="Ra màn hình thống kê" style="shape=callout;whiteSpace=wrap;html=1;perimeter=calloutPerimeter;position2=0;base=16;" parent="1" vertex="1">
          <mxGeometry x="294" y="510" width="120" height="60" as="geometry" />
        </mxCell>
        <mxCell id="mawjHxVvoFHF4PkXvqdo-49" value="Ra màn hình dọn dẹp" style="shape=callout;whiteSpace=wrap;html=1;perimeter=calloutPerimeter;position2=1;base=16;" parent="1" vertex="1">
          <mxGeometry x="45" y="545" width="120" height="60" as="geometry" />
        </mxCell>
        <mxCell id="mawjHxVvoFHF4PkXvqdo-51" value="Ra màn hình ứng tiền theo ngày" style="shape=callout;whiteSpace=wrap;html=1;perimeter=calloutPerimeter;position2=0;base=16;" parent="1" vertex="1">
          <mxGeometry x="294" y="585" width="120" height="60" as="geometry" />
        </mxCell>
        <mxCell id="mawjHxVvoFHF4PkXvqdo-81" value="&lt;font style=&quot;font-size: 17px;&quot;&gt;Design item Add (item 2)&lt;/font&gt;" style="text;html=1;strokeColor=none;fillColor=none;align=center;verticalAlign=middle;whiteSpace=wrap;rounded=0;" parent="1" vertex="1">
          <mxGeometry x="40" y="1202" width="210" height="30" as="geometry" />
        </mxCell>
        <mxCell id="mawjHxVvoFHF4PkXvqdo-95" value="Khoản tiền (EditText)" style="rounded=0;whiteSpace=wrap;html=1;" parent="1" vertex="1">
          <mxGeometry x="40" y="1250" width="160" height="30" as="geometry" />
        </mxCell>
        <mxCell id="mawjHxVvoFHF4PkXvqdo-96" value="Số tiền (EditText)" style="rounded=0;whiteSpace=wrap;html=1;" parent="1" vertex="1">
          <mxGeometry x="220" y="1250" width="100" height="30" as="geometry" />
        </mxCell>
        <mxCell id="mawjHxVvoFHF4PkXvqdo-97" value="K" style="text;html=1;strokeColor=none;fillColor=none;align=center;verticalAlign=middle;whiteSpace=wrap;rounded=0;" parent="1" vertex="1">
          <mxGeometry x="322" y="1250" width="10" height="30" as="geometry" />
        </mxCell>
        <mxCell id="mawjHxVvoFHF4PkXvqdo-98" value="&lt;font style=&quot;font-size: 40px;&quot;&gt;+&lt;/font&gt;" style="ellipse;whiteSpace=wrap;html=1;aspect=fixed;" parent="1" vertex="1">
          <mxGeometry x="340" y="1250" width="30" height="30" as="geometry" />
        </mxCell>
        <mxCell id="mawjHxVvoFHF4PkXvqdo-100" value="&lt;font style=&quot;font-size: 17px;&quot;&gt;Design item Edit (item 3)&lt;/font&gt;" style="text;html=1;strokeColor=none;fillColor=none;align=center;verticalAlign=middle;whiteSpace=wrap;rounded=0;" parent="1" vertex="1">
          <mxGeometry x="40" y="1360" width="210" height="30" as="geometry" />
        </mxCell>
        <mxCell id="mawjHxVvoFHF4PkXvqdo-106" value="" style="rounded=0;whiteSpace=wrap;html=1;" parent="1" vertex="1">
          <mxGeometry x="40" y="1420" width="340" height="50" as="geometry" />
        </mxCell>
        <mxCell id="mawjHxVvoFHF4PkXvqdo-107" value="Khoản tiền" style="text;html=1;strokeColor=none;fillColor=none;align=center;verticalAlign=middle;whiteSpace=wrap;rounded=0;" parent="1" vertex="1">
          <mxGeometry x="45" y="1431" width="60" height="30" as="geometry" />
        </mxCell>
        <mxCell id="mawjHxVvoFHF4PkXvqdo-108" value="Số tiền" style="text;html=1;strokeColor=none;fillColor=none;align=center;verticalAlign=middle;whiteSpace=wrap;rounded=0;" parent="1" vertex="1">
          <mxGeometry x="220" y="1430" width="60" height="30" as="geometry" />
        </mxCell>
        <mxCell id="mawjHxVvoFHF4PkXvqdo-109" value="Icon edit" style="whiteSpace=wrap;html=1;aspect=fixed;" parent="1" vertex="1">
          <mxGeometry x="335" y="1425" width="40" height="40" as="geometry" />
        </mxCell>
        <mxCell id="mawjHxVvoFHF4PkXvqdo-110" value="Click hiển thị thêm 1 item bên dưới" style="shape=callout;whiteSpace=wrap;html=1;perimeter=calloutPerimeter;position2=0;" parent="1" vertex="1">
          <mxGeometry x="372" y="1200" width="120" height="70" as="geometry" />
        </mxCell>
        <mxCell id="mawjHxVvoFHF4PkXvqdo-111" value="Click hiển thị dialog edit (design 2)" style="shape=callout;whiteSpace=wrap;html=1;perimeter=calloutPerimeter;position2=0;" parent="1" vertex="1">
          <mxGeometry x="370" y="1380" width="120" height="70" as="geometry" />
        </mxCell>
        <mxCell id="mawjHxVvoFHF4PkXvqdo-122" value="&lt;font style=&quot;font-size: 17px;&quot;&gt;Design dialog add - edit (2)&lt;/font&gt;" style="text;html=1;strokeColor=none;fillColor=none;align=center;verticalAlign=middle;whiteSpace=wrap;rounded=0;" parent="1" vertex="1">
          <mxGeometry x="40" y="1570" width="280" height="30" as="geometry" />
        </mxCell>
        <mxCell id="mawjHxVvoFHF4PkXvqdo-132" value="" style="rounded=1;whiteSpace=wrap;html=1;" parent="1" vertex="1">
          <mxGeometry x="40" y="1640" width="360" height="150" as="geometry" />
        </mxCell>
        <mxCell id="mawjHxVvoFHF4PkXvqdo-133" value="Khoản tiền (EditText)" style="rounded=0;whiteSpace=wrap;html=1;" parent="1" vertex="1">
          <mxGeometry x="60" y="1660" width="290" height="30" as="geometry" />
        </mxCell>
        <mxCell id="mawjHxVvoFHF4PkXvqdo-134" value="Số tiền (EditText)" style="rounded=0;whiteSpace=wrap;html=1;" parent="1" vertex="1">
          <mxGeometry x="60" y="1700" width="290" height="30" as="geometry" />
        </mxCell>
        <mxCell id="mawjHxVvoFHF4PkXvqdo-135" value="K" style="text;html=1;strokeColor=none;fillColor=none;align=center;verticalAlign=middle;whiteSpace=wrap;rounded=0;" parent="1" vertex="1">
          <mxGeometry x="352" y="1701" width="20" height="30" as="geometry" />
        </mxCell>
        <mxCell id="mawjHxVvoFHF4PkXvqdo-136" value="Button Add / Edit" style="rounded=1;whiteSpace=wrap;html=1;" parent="1" vertex="1">
          <mxGeometry x="105" y="1750" width="230" height="30" as="geometry" />
        </mxCell>
        <mxCell id="mawjHxVvoFHF4PkXvqdo-137" value="Click button thực hiện add/ edit item vừa nhập" style="shape=callout;whiteSpace=wrap;html=1;perimeter=calloutPerimeter;position2=0;" parent="1" vertex="1">
          <mxGeometry x="380" y="1690" width="120" height="80" as="geometry" />
        </mxCell>
        <mxCell id="BLDvqnNG4H-uY_38VMDV-1" value="&lt;div style=&quot;box-sizing:border-box;width:100%;background:#e4e4e4;padding:2px;&quot;&gt;Khoản tiền&lt;/div&gt;&lt;table style=&quot;width:100%;font-size:1em;&quot; cellpadding=&quot;2&quot; cellspacing=&quot;0&quot;&gt;&lt;tbody&gt;&lt;tr&gt;&lt;td&gt;PK&lt;/td&gt;&lt;td&gt;id&amp;nbsp;&lt;/td&gt;&lt;/tr&gt;&lt;tr&gt;&lt;td&gt;&lt;br&gt;&lt;/td&gt;&lt;td&gt;ngày (dd/MM/yyyy) (Unique)&lt;/td&gt;&lt;/tr&gt;&lt;tr&gt;&lt;td&gt;&lt;/td&gt;&lt;td&gt;khoản tiền&lt;br&gt;số tiền&lt;br&gt;&lt;br&gt;&lt;/td&gt;&lt;/tr&gt;&lt;/tbody&gt;&lt;/table&gt;" style="verticalAlign=top;align=left;overflow=fill;html=1;whiteSpace=wrap;" vertex="1" parent="1">
          <mxGeometry x="35" y="1920" width="180" height="100" as="geometry" />
        </mxCell>
        <mxCell id="BLDvqnNG4H-uY_38VMDV-3" value="&lt;div style=&quot;text-align: left;&quot;&gt;&lt;br&gt;&lt;/div&gt;" style="text;html=1;align=center;verticalAlign=middle;resizable=0;points=[];autosize=1;strokeColor=none;fillColor=none;" vertex="1" parent="1">
          <mxGeometry x="600" y="1938" width="20" height="30" as="geometry" />
        </mxCell>
        <mxCell id="BLDvqnNG4H-uY_38VMDV-4" value="- mỗi ngày chỉ có một danh sách khoản tiền&lt;br&gt;- số tiền tính theo đơn vị K" style="text;html=1;align=left;verticalAlign=middle;resizable=0;points=[];autosize=1;strokeColor=none;fillColor=none;" vertex="1" parent="1">
          <mxGeometry x="280" y="1920" width="250" height="40" as="geometry" />
        </mxCell>
      </root>
    </mxGraphModel>
  </diagram>
</mxfile>
